<svg width="21" height="21" viewBox="0 0 21 21" fill="none" xmlns="http://www.w3.org/2000/svg">
<g clip-path="url(#clip0_492_130)">
<path fill-rule="evenodd" clip-rule="evenodd" d="M15.4851 19.4018C15.7535 19.5918 16.0993 19.6393 16.4076 19.5226C16.716 19.4051 16.9426 19.1418 17.011 18.8226C17.7351 15.4193 19.4918 6.80515 20.151 3.70931C20.201 3.47598 20.1176 3.23348 19.9343 3.07765C19.751 2.92181 19.4968 2.87681 19.2701 2.96098C15.776 4.25431 5.01513 8.29181 0.616793 9.91931C0.337626 10.0226 0.15596 10.291 0.165126 10.5851C0.175126 10.8801 0.37346 11.136 0.659293 11.2218C2.63179 11.8118 5.22096 12.6326 5.22096 12.6326C5.22096 12.6326 6.43096 16.2868 7.06179 18.1451C7.14096 18.3785 7.32346 18.5618 7.56429 18.6251C7.80429 18.6876 8.06096 18.6218 8.24013 18.4526C9.25346 17.496 10.8201 16.0168 10.8201 16.0168C10.8201 16.0168 13.7968 18.1993 15.4851 19.4018ZM6.31013 12.171L7.70929 16.786L8.02013 13.8635C8.02013 13.8635 13.426 8.98765 16.5076 6.20848C16.5976 6.12681 16.6101 5.99015 16.5351 5.89431C16.461 5.79848 16.3243 5.77598 16.2218 5.84098C12.6501 8.12181 6.31013 12.171 6.31013 12.171Z" fill="white"/>
</g>
<defs>
<clipPath id="clip0_492_130">
<rect width="20" height="20" fill="white" transform="translate(0.165039 0.419434)"/>
</clipPath>
</defs>
</svg>
