<svg width="21" height="21" viewBox="0 0 21 21" fill="none" xmlns="http://www.w3.org/2000/svg">
<path fill-rule="evenodd" clip-rule="evenodd" d="M17.0425 7.45905C17.1316 7.16202 17.0425 6.9541 16.6267 6.9541H15.2405C14.8841 6.9541 14.7257 7.14222 14.6366 7.35014C14.6366 7.35014 13.9336 9.07291 12.9336 10.1818C12.6069 10.5086 12.4682 10.6076 12.29 10.6076C12.2009 10.6076 12.0722 10.5086 12.0722 10.2115V7.45905C12.0722 7.10262 11.9732 6.9541 11.6762 6.9541H9.49794C9.28012 6.9541 9.14151 7.12242 9.14151 7.27093C9.14151 7.60757 9.63656 7.68678 9.69596 8.61747V10.6571C9.69596 11.1026 9.61676 11.1818 9.43854 11.1818C8.97319 11.1818 7.82468 9.45905 7.15141 7.47885C7.01279 7.11252 6.88408 6.9541 6.52765 6.9541H5.14151C4.74547 6.9541 4.66626 7.14222 4.66626 7.35014C4.66626 7.71648 5.13161 9.53826 6.85438 11.9442C8.00289 13.5878 9.61676 14.4789 11.0821 14.4789C11.9633 14.4789 12.0722 14.2808 12.0722 13.9442V12.6967C12.0722 12.3006 12.1514 12.2214 12.4385 12.2214C12.6465 12.2214 12.993 12.3204 13.8148 13.1125C14.7554 14.0531 14.9138 14.4789 15.4385 14.4789H16.8247C17.2207 14.4789 17.4187 14.2808 17.2999 13.8947C17.1712 13.5086 16.7257 12.9442 16.1316 12.2709C15.8049 11.8848 15.3197 11.4789 15.1811 11.2709C14.9732 11.0036 15.0326 10.8848 15.1811 10.6571C15.1811 10.6472 16.8742 8.27093 17.0425 7.45905Z" fill="white"/>
</svg>
